<svg width="268" height="131" viewBox="0 0 268 131" fill="none" xmlns="http://www.w3.org/2000/svg">
<path d="M19.6901 2.36485C37.1723 3.37482 60.3061 3.12848 60.3061 3.12848L103.905 56.9277L101.12 128.438L2.32324 1.37952L19.6901 2.38948V2.36485Z" fill="#1D1D1B" stroke="#F6F5EC" stroke-miterlimit="10"/>
<path d="M98.9449 120.506L9.82031 4.77893L19.789 5.9367L99.604 107.352L98.9449 120.506Z" fill="#F6F5EC" stroke="#1D1E1B" stroke-width="1.09" stroke-miterlimit="10"/>
<path d="M28.9998 17.2681L19.7891 17.6376" stroke="#1D1E1B" stroke-width="1.09" stroke-miterlimit="10"/>
<path d="M37.568 28.7225L29.7578 30.57" stroke="#1D1E1B" stroke-width="1.09" stroke-miterlimit="10"/>
<path d="M46.4655 40.5465L39.2485 43.601" stroke="#1D1E1B" stroke-width="1.09" stroke-miterlimit="10"/>
<path d="M56.4833 53.4052L49.6782 56.9277" stroke="#1D1E1B" stroke-width="1.09" stroke-miterlimit="10"/>
<path d="M66.1392 64.564L59.7461 70.1065" stroke="#1D1E1B" stroke-width="1.09" stroke-miterlimit="10"/>
<path d="M74.0149 75.3534L69.7803 83.4824" stroke="#1D1E1B" stroke-width="1.09" stroke-miterlimit="10"/>
<path d="M82.1547 85.8965L79.2383 95.3557" stroke="#1D1E1B" stroke-width="1.09" stroke-miterlimit="10"/>
<path d="M90.9205 96.6858L88.9268 108.387" stroke="#1D1E1B" stroke-width="1.09" stroke-miterlimit="10"/>
<path d="M100.164 64.6133L54.9678 7.34082L59.7297 7.48862L100.164 57.5928V64.6133Z" fill="#F6F5EC" stroke="#1D1E1B" stroke-width="1.09" stroke-miterlimit="10"/>
<path d="M64.3927 13.0558L60.0098 13.6963" stroke="#1D1E1B" stroke-width="1.09" stroke-miterlimit="10"/>
<path d="M68.7428 18.7461L65.0684 20.1009" stroke="#1D1E1B" stroke-width="1.09" stroke-miterlimit="10"/>
<path d="M73.6528 25.1753L70.2915 27.146" stroke="#1D1E1B" stroke-width="1.09" stroke-miterlimit="10"/>
<path d="M78.3322 30.9642L75.1851 33.1566" stroke="#1D1E1B" stroke-width="1.09" stroke-miterlimit="10"/>
<path d="M83.1929 36.4327L80.293 39.6843" stroke="#1D1E1B" stroke-width="1.09" stroke-miterlimit="10"/>
<path d="M87.2132 41.8029L85.3843 46.3108" stroke="#1D1E1B" stroke-width="1.09" stroke-miterlimit="10"/>
<path d="M91.3326 47.0251L90.1792 52.1735" stroke="#1D1E1B" stroke-width="1.09" stroke-miterlimit="10"/>
<path d="M95.765 52.3213L95.106 58.6521" stroke="#1D1E1B" stroke-width="1.09" stroke-miterlimit="10"/>
<path d="M248.31 2.36485C230.827 3.37482 207.694 3.12848 207.694 3.12848L164.095 56.9277L166.88 128.438L265.66 1.37952C265.66 1.37952 258.064 1.82292 248.293 2.38948L248.31 2.36485Z" fill="#1D1D1B" stroke="#F6F5EC" stroke-miterlimit="10"/>
<path d="M169.038 120.506L258.18 4.77893L248.194 5.9367L168.379 107.352L169.038 120.506Z" fill="#F6F5EC" stroke="#1D1E1B" stroke-width="1.09" stroke-miterlimit="10"/>
<path d="M239 17.2681L248.194 17.6376" stroke="#1D1E1B" stroke-width="1.09" stroke-miterlimit="10"/>
<path d="M230.432 28.7225L238.226 30.57" stroke="#1D1E1B" stroke-width="1.09" stroke-miterlimit="10"/>
<path d="M221.518 40.5465L228.735 43.601" stroke="#1D1E1B" stroke-width="1.09" stroke-miterlimit="10"/>
<path d="M211.516 53.4052L218.305 56.9277" stroke="#1D1E1B" stroke-width="1.09" stroke-miterlimit="10"/>
<path d="M201.861 64.564L208.254 70.1065" stroke="#1D1E1B" stroke-width="1.09" stroke-miterlimit="10"/>
<path d="M193.985 75.3534L198.203 83.4824" stroke="#1D1E1B" stroke-width="1.09" stroke-miterlimit="10"/>
<path d="M185.829 85.8965L188.762 95.3557" stroke="#1D1E1B" stroke-width="1.09" stroke-miterlimit="10"/>
<path d="M177.063 96.6858L179.073 108.387" stroke="#1D1E1B" stroke-width="1.09" stroke-miterlimit="10"/>
<path d="M167.835 64.6133L213.032 7.34082L208.254 7.48862L167.835 57.5928V64.6133Z" fill="#F6F5EC" stroke="#1D1E1B" stroke-width="1.09" stroke-miterlimit="10"/>
<path d="M203.607 13.0558L207.974 13.6963" stroke="#1D1E1B" stroke-width="1.09" stroke-miterlimit="10"/>
<path d="M199.257 18.7461L202.915 20.1009" stroke="#1D1E1B" stroke-width="1.09" stroke-miterlimit="10"/>
<path d="M194.347 25.1753L197.708 27.146" stroke="#1D1E1B" stroke-width="1.09" stroke-miterlimit="10"/>
<path d="M189.651 30.9642L192.798 33.1566" stroke="#1D1E1B" stroke-width="1.09" stroke-miterlimit="10"/>
<path d="M184.79 36.4327L187.707 39.6843" stroke="#1D1E1B" stroke-width="1.09" stroke-miterlimit="10"/>
<path d="M180.786 41.8029L182.599 46.3108" stroke="#1D1E1B" stroke-width="1.09" stroke-miterlimit="10"/>
<path d="M176.651 47.0251L177.821 52.1735" stroke="#1D1E1B" stroke-width="1.09" stroke-miterlimit="10"/>
<path d="M172.218 52.3213L172.894 58.6521" stroke="#1D1E1B" stroke-width="1.09" stroke-miterlimit="10"/>
<path d="M134 42C154.435 42 171 38.6421 171 34.5C171 30.3579 154.435 27 134 27C113.565 27 97 30.3579 97 34.5C97 38.6421 113.565 42 134 42Z" stroke="#F6F5EC" stroke-width="4" stroke-miterlimit="10"/>
</svg>
